<?xml version="1.0" encoding="UTF-8"?> <svg xmlns="http://www.w3.org/2000/svg" id="Layer_1" data-name="Layer 1" viewBox="0 0 1280 400"><defs><style>.cls-1{fill:#fff;stroke:#000;stroke-miterlimit:10;stroke-width:0.3px;}.cls-2{fill:#2a2c2e;}.cls-3{fill:#ef4723;}</style></defs><circle class="cls-1" cx="202.75" cy="200.25" r="187.25"></circle><path class="cls-2" d="M512.62,94.55q-4.17,3.69-4.18,11.25v2.11h19.23v26.31H508.44v74.89H472V134.22H453.8V107.91H472v-2.78q0-20.49,10.72-32T513.9,61.55q11.61,0,18.83,2.79V92.26a42.2,42.2,0,0,0-9.55-1.39A15.42,15.42,0,0,0,512.62,94.55Z"></path><rect class="cls-2" x="543.86" y="107.91" width="36.43" height="101.2"></rect><circle class="cls-3" cx="562.08" cy="77.55" r="19.23"></circle><path class="cls-2" d="M601.55,209.11V62.37H638V209.11Z"></path><path class="cls-2" d="M764.48,107.91v101.2H729.06V195.36a29.78,29.78,0,0,1-12.73,11.26A41.15,41.15,0,0,1,698,210.7a41.54,41.54,0,0,1-38.89-24.6q-5.68-11.85-5.68-27.39,0-15.74,5.78-27.89a45.64,45.64,0,0,1,15.91-18.92A40.28,40.28,0,0,1,698,105.12a38.9,38.9,0,0,1,18.21,4.29,32.58,32.58,0,0,1,12.83,11.45v-13Zm-40.39,69.51q5.16-6.55,5.17-18.9,0-12.53-5.17-19.2t-14.73-6.66q-9.35,0-14.72,6.86t-5.37,19.4q0,12.14,5.17,18.61T709.36,184Q718.92,184,724.09,177.42Z"></path><path class="cls-2" d="M939.23,115.88q8.44,10.75,8.44,32.87v60.36H911.24v-59.3q0-9-2.66-12.93t-8.94-4a13.59,13.59,0,0,0-11.59,5.57q-4.14,5.58-4.13,15.72v54.92H847.49v-59.3q0-9-2.77-12.93t-8.92-4q-7.51,0-11.57,5.57t-4.06,15.72v54.92H784.75V137a237.34,237.34,0,0,0-1.59-29.09h33.78l1.79,14.14a31.08,31.08,0,0,1,12.81-12.54,39.84,39.84,0,0,1,19-4.39q21.66,0,29.41,18.33a39.74,39.74,0,0,1,14.2-13.35,38.56,38.56,0,0,1,19.18-5Q930.78,105.12,939.23,115.88Z"></path><path class="cls-2" d="M1058,162.56H994.55q1,11.73,6.77,16.91t16.91,5.17a48.07,48.07,0,0,0,15.12-2.48,51.2,51.2,0,0,0,13.73-6.87l9.15,23.88a58.71,58.71,0,0,1-18.3,8.75,75.41,75.41,0,0,1-21.49,3.19q-17.31,0-30-6.37a44.91,44.91,0,0,1-19.5-18.21q-6.78-11.84-6.77-27.95a56.91,56.91,0,0,1,6.47-27.36,47.42,47.42,0,0,1,17.9-18.81,50.53,50.53,0,0,1,26.17-6.76q14.33,0,25.07,6.37a42,42,0,0,1,16.51,18.2q5.77,11.85,5.77,27.56Zm-63.56-17.21h32.24q-2-15.51-15.52-15.52Q997.85,129.83,994.46,145.35Z"></path><path class="cls-2" d="M1166.58,116q8.85,10.86,8.86,32.77v60.36H1140v-58.7q0-9.34-3.2-13.43t-10-4.08q-8.19,0-13.19,5.47t-5,14.43v56.31h-36.43V137a237.34,237.34,0,0,0-1.59-29.09h33.81l1.79,14.94a39.65,39.65,0,0,1,14.32-13.14,40.1,40.1,0,0,1,19.29-4.59Q1157.74,105.12,1166.58,116Z"></path><path class="cls-2" d="M1262.5,180.19v27.44q-7.27,2.94-18.46,2.94-20.24,0-30.74-11.39t-10.51-31.62V134.22h-19.22V107.91h18.21V85l36.43-11.54v34.42h24.29v26.31h-24.29v32.64q0,7.15,4.25,10.84a15.52,15.52,0,0,0,10.56,3.68A51.06,51.06,0,0,0,1262.5,180.19Z"></path><path class="cls-2" d="M479.62,317.34a39.33,39.33,0,0,0,21,5.66c7.72,0,14.43-1.7,19.94-5.06,3.5-2.13,8.14-8.28,8.14-8.28v16.17c0,8.94-2.21,15.79-6.59,20.37S511.25,353,502.74,353A57.31,57.31,0,0,1,486.45,351a75.56,75.56,0,0,1-15.56-7.09l-2.28-1.32-2.47,10.56,1.06.71c9.76,6.58,21.59,9.91,35.19,9.91,12.21,0,21.62-3.33,28-9.91s9.48-16.26,9.48-28.88V236.43H528.68v10.89a23.24,23.24,0,0,0-8.41-8.14c-5.46-3.23-12.08-4.87-19.67-4.87a39.71,39.71,0,0,0-21,5.57,38.06,38.06,0,0,0-14.29,15.71,54.61,54.61,0,0,0,0,46A38.63,38.63,0,0,0,479.62,317.34Zm-7.95-38.77c0-10.54,2.61-18.88,7.75-24.77S491.5,245,500.6,245s15.81,2.86,20.9,8.76,7.68,14.23,7.68,24.78-2.59,18.74-7.68,24.69-11.93,8.84-20.9,8.84-16-2.86-21.18-8.76S471.67,289.11,471.67,278.57Z"></path><path class="cls-2" d="M576.48,321A40.73,40.73,0,0,0,598,326.68c7.66,0,14.37-1.67,19.94-5a29.65,29.65,0,0,0,8.92-8.05v11.81H638V236.43H626.87v10.8a29.19,29.19,0,0,0-8.93-8c-5.58-3.23-12.28-4.87-19.93-4.87a39.56,39.56,0,0,0-21.38,5.84,39.09,39.09,0,0,0-14.4,16.39,54.92,54.92,0,0,0-5.08,24.18c0,9.11,1.68,17.22,5,24.08A37.53,37.53,0,0,0,576.48,321ZM570,280.79c0-11.37,2.56-20.29,7.62-26.53s11.89-9.23,21-9.23,15.87,2.93,20.79,9,7.45,15,7.45,26.45-2.51,20.26-7.46,26.45S607.74,316,598.79,316s-16-3-21.06-9.08S570,292,570,280.79Z"></path><path class="cls-2" d="M662.31,261.84v63.64h10.12V273.87c0-8.95,2.32-16.13,6.89-21.35s10.67-7.74,18.62-7.74c6.76,0,11.48,1.84,14.45,5.62S717,260.6,717,269.25v56.23h11.13V273.87c0-8.95,2.34-16.13,6.95-21.35s10.69-7.74,18.59-7.74c6.69,0,11.39,1.84,14.38,5.62s4.6,10.2,4.6,18.85v56.23h11.14V268.67c0-22.75-10.14-34.29-30.14-34.29a36.31,36.31,0,0,0-18.5,4.69A28.76,28.76,0,0,0,725,248.8c-4.75-9.57-13.79-14.42-26.93-14.42a31.53,31.53,0,0,0-17.74,5,28.1,28.1,0,0,0-8.14,8.22l-.84-11.18H660.67l.29,2.1A178.36,178.36,0,0,1,662.31,261.84Z"></path><path class="cls-2" d="M844.54,326.78a52.34,52.34,0,0,0,18.52-3.37,40.89,40.89,0,0,0,14.76-9.14l1-1-5.2-9.36-1.72,1.47a46.16,46.16,0,0,1-13.3,8.14,40.51,40.51,0,0,1-14.39,2.53c-9.89,0-17.56-3-22.8-9s-8-14.77-8-26.07h66.52v-3.91c0-13.28-3.29-23.81-9.78-31.31S854.45,234.33,843,234.33a40.37,40.37,0,0,0-21.58,5.83,39.35,39.35,0,0,0-14.63,16.4,54.27,54.27,0,0,0-5.15,24.08c0,14.21,3.88,25.57,11.53,33.75S831.41,326.78,844.54,326.78ZM814,269.83c1.49-7.78,4.6-14,9.26-18.44,5-4.82,11.59-7.26,19.49-7.26s13.85,2.3,18.32,7c4.13,4.37,6.65,10.64,7.53,18.67Z"></path><path class="cls-2" d="M927.2,326.76c10.06,0,18.23-2.31,24.29-6.87a22.09,22.09,0,0,0,9.37-18.41,20.91,20.91,0,0,0-6.18-15.33c-4-4-10-6.93-17.8-8.7l-14.72-3.59c-4.86-1.17-8.47-2.95-10.71-5.29s-3.25-5.28-3.25-9.15A12.09,12.09,0,0,1,913.33,249c3.6-2.6,8.84-3.92,15.58-3.92a32.09,32.09,0,0,1,12.78,2.5,41.6,41.6,0,0,1,11.45,7.62l1.73,1.58,5.18-9.33-.82-1a32,32,0,0,0-13-9,47.28,47.28,0,0,0-17.35-3.12c-9.73,0-17.63,2.38-23.47,7.08a23.32,23.32,0,0,0-9,19.05A21.48,21.48,0,0,0,903,275.76a32.84,32.84,0,0,0,16.64,8.89l14.5,3.41c5.48,1.4,9.46,3.23,11.84,5.45a11,11,0,0,1,3.35,8.48c0,4.52-1.69,7.84-5.17,10.17-3.66,2.46-9.18,3.71-16.4,3.71a45.5,45.5,0,0,1-15-2.21,41.35,41.35,0,0,1-12.84-7.78l-1.74-1.48-5,9.21,1,1C902.16,322.67,913.3,326.76,927.2,326.76Z"></path><path class="cls-3" d="M152.8,147.87a31.79,31.79,0,0,0-3.51-.58,20.36,20.36,0,0,0-2.47-.17,31.65,31.65,0,0,0-10.09,1.55,34.6,34.6,0,0,0-19.29,15.86c-7.14,12.67-5.64,28.41,4.22,44.33,9.05,14.6,26.8,29.59,46.78,39.62,16.57-26,19.23-57.86,6.74-81.38C169.62,156.65,161.88,150,152.8,147.87Z"></path><path class="cls-3" d="M272.08,155.18h0a7.84,7.84,0,0,0-1.85-.73,7,7,0,0,0-3.81.17,8.26,8.26,0,0,0-3.5,2.29c-4.38,4.66-3.52,13,2.3,22.39,3.13,5.06,8.51,9.27,15.09,11.9C282.75,169.27,277.56,158.1,272.08,155.18Z"></path><path class="cls-3" d="M202.83,2.67C93.84,2.67,5.5,91,5.5,200S93.84,397.33,202.83,397.33,400.17,309,400.17,200,311.82,2.67,202.83,2.67ZM338.12,204.09A13.25,13.25,0,0,1,331,213l-1,.42a81.71,81.71,0,0,1-28.57,7.41c-9.37,31.13-30.95,53-58.51,62-16.33,5.31-34.74,6.08-54,1.58-3.73-.87-7.73-2-11.94-3.41a122.72,122.72,0,0,1-36.58,27,12.79,12.79,0,0,1-8.17,1.83,12.14,12.14,0,0,1-1.89-.37,13.36,13.36,0,0,1-9.74-16c1.13-5.76,6.55-8.67,7.17-9a98.22,98.22,0,0,0,23-15.1c-21.9-12.09-41-29.14-51.58-46.31-15-24.21-16.78-50.26-4.79-71.47,10.78-19.08,31.51-31.23,52.81-31s40.2,12.7,51.59,34.11c16.08,30.23,14,70.31-4.93,103.41l1.23.3c36.61,8.57,67.42-7.49,79.49-41-13.83-4.66-25.35-13.26-32-24-14.8-23.82-9.23-43.86.93-54.67a34.31,34.31,0,0,1,41.16-7c8.33,4.46,26.69,19.22,22.21,61.46a60.77,60.77,0,0,0,12.88-4.31,14,14,0,0,1,8.55-.83,13.19,13.19,0,0,1,9.81,16.08Z"></path></svg> 